<svg width="180" height="180" viewBox="0 0 180 180" fill="none" xmlns="http://www.w3.org/2000/svg">
<path d="M71.4062 86.4062H68.75C67.341 86.4062 65.9898 85.8465 64.9935 84.8503C63.9972 83.854 63.4375 82.5027 63.4375 81.0938V54.5312C63.4375 53.1223 63.9972 51.771 64.9935 50.7747C65.9898 49.7785 67.341 49.2188 68.75 49.2188H111.25C112.659 49.2188 114.01 49.7785 115.006 50.7747C116.003 51.771 116.562 53.1223 116.562 54.5312V81.0938C116.562 82.5027 116.003 83.854 115.006 84.8503C114.01 85.8465 112.659 86.4062 111.25 86.4062H108.594" stroke="black" stroke-width="1.875" stroke-linecap="round" stroke-linejoin="round"/>
<path d="M90 81.0938L103.281 97.0312H76.7188L90 81.0938Z" stroke="black" stroke-width="1.875" stroke-linecap="round" stroke-linejoin="round"/>
</svg>
